<?xml version="1.0" encoding="UTF-8"?>
<svg id="Layer_1" data-name="Layer 1" xmlns="http://www.w3.org/2000/svg" viewBox="0 0 193.04 192.68">
  <path d="M88.6,0c-14.58,0-26.39,11.82-26.39,26.39s11.82,26.39,26.39,26.39,26.39-11.82,26.39-26.39S103.17,0,88.6,0ZM88.6,42.04c-8.64,0-15.64-7-15.64-15.64s7-15.64,15.64-15.64,15.64,7,15.64,15.64-7,15.64-15.64,15.64Z"/>
  <path d="M158.31,7.42c-14.58,0-26.39,11.82-26.39,26.39s11.82,26.39,26.39,26.39,26.39-11.82,26.39-26.39-11.82-26.39-26.39-26.39ZM158.31,49.46c-8.64,0-15.64-7-15.64-15.64s7-15.64,15.64-15.64,15.64,7,15.64,15.64-7,15.64-15.64,15.64Z"/>
  <path d="M166.64,76.54c-14.58,0-26.39,11.82-26.39,26.39s11.82,26.39,26.39,26.39,26.39-11.82,26.39-26.39-11.82-26.39-26.39-26.39ZM166.64,118.58c-8.64,0-15.64-7-15.64-15.64s7-15.64,15.64-15.64,15.64,7,15.64,15.64-7,15.64-15.64,15.64Z"/>
  <polygon points="90.98 192.68 158.06 125.6 143.54 111.09 61.95 192.68 90.98 192.68"/>
  <polygon points="0 130.07 81.93 48.14 67.41 33.63 0 101.04 0 130.07"/>
  <polygon points="135.71 42.38 0 178.08 0 192.68 14.44 192.68 150.22 56.89 135.71 42.38"/>
</svg>